<svg width="26" height="26" viewBox="0 0 26 26" fill="none" xmlns="http://www.w3.org/2000/svg">
<path d="M16.8358 0C18.5052 0.966241 19.9356 2.32013 21.0146 3.95536C22.0937 5.59058 22.7921 7.46263 23.055 9.42449C23.3178 11.3864 23.138 13.3846 22.5297 15.2624C21.9213 17.1402 20.9009 18.8463 19.5487 20.2468C18.1964 21.6474 16.5491 22.7042 14.7361 23.3343C12.9231 23.9644 10.9937 24.1506 9.09951 23.8784C7.2053 23.6061 5.3978 22.8828 3.81897 21.7652C2.24013 20.6475 0.932922 19.1661 0 17.4371C4.71075 20.1684 10.7818 19.4662 14.7877 15.3172C18.795 11.1668 19.4744 4.88045 16.8358 0Z" fill="#161616"/>
<path d="M25.7722 3.22772C25.4685 2.92409 24.9285 2.92409 24.6247 3.22772L14.5 13.3487L4.37528 3.22772C4.07153 2.92409 3.53155 2.92409 3.22781 3.22772C2.92406 3.53135 2.92406 4.07114 3.22781 4.37477L13.3525 14.4958L3.22781 24.6168C2.92406 24.9204 2.92406 25.4602 3.22781 25.7638C3.39655 25.9325 3.59905 26 3.80154 26C4.00403 26 4.20653 25.9325 4.37528 25.7638L14.5 15.6428L24.6247 25.7638C24.7935 25.9325 24.996 26 25.1985 26C25.401 26 25.6034 25.9325 25.7722 25.7638C26.0759 25.4602 26.0759 24.9204 25.7722 24.6168L15.6475 14.4958L25.7722 4.37477C26.0759 4.07114 26.0759 3.56509 25.7722 3.22772Z" fill="#FF3535"/>
</svg>
