<svg width="24" height="25" viewBox="0 0 24 25" fill="none" xmlns="http://www.w3.org/2000/svg">
<path d="M12 24C5.39738 24 0 18.6026 0 12C0 5.39738 5.39738 0 12 0C18.6026 0 24 5.39738 24 12C24.0524 18.6026 18.655 24 12 24ZM12 1.25764C6.0786 1.25764 1.31004 6.0786 1.31004 11.9476C1.31004 17.8166 6.131 22.6376 12 22.6376C17.869 22.6376 22.69 17.8166 22.69 11.9476C22.69 6.0786 17.9214 1.25764 12 1.25764Z" fill="black"/>
<path d="M14.8 18.5L13.2 16L11.6188 13.5L11.3188 9V4.5L12 3.5L12.7337 4.5V13.1008L16 17.7V19L14.8 18.5Z" fill="black"/>
<path d="M23.2722 1.62772C22.9685 1.32409 22.4285 1.32409 22.1247 1.62772L12 11.7487L1.87528 1.62772C1.57153 1.32409 1.03155 1.32409 0.727806 1.62772C0.424065 1.93135 0.424065 2.47114 0.727806 2.77477L10.8525 12.8958L0.727806 23.0168C0.424065 23.3204 0.424065 23.8602 0.727806 24.1638C0.896552 24.3325 1.09905 24.4 1.30154 24.4C1.50403 24.4 1.70653 24.3325 1.87528 24.1638L12 14.0428L22.1247 24.1638C22.2935 24.3325 22.496 24.4 22.6985 24.4C22.901 24.4 23.1034 24.3325 23.2722 24.1638C23.5759 23.8602 23.5759 23.3204 23.2722 23.0168L13.1475 12.8958L23.2722 2.77477C23.5759 2.47114 23.5759 1.96509 23.2722 1.62772Z" fill="#FF3535"/>
</svg>
